<svg width="49" height="65" viewBox="0 0 49 65" fill="none" xmlns="http://www.w3.org/2000/svg">
<path d="M7.94471 36.5387L0.104004 58.7718L7.99251 58.6951L17.7211 36.5387H7.94471Z" fill="#80AAFF"/>
<path d="M17.7206 36.5387L11.5984 59.9338L17.7643 65.0003L24.4996 45.2937V36.5387H17.7206Z" fill="#80AAFF"/>
<path d="M15.592 36.5387L7.99292 58.6951L10.0672 58.675L11.5993 59.9338L19.6233 36.5387H15.592Z" fill="#EAF1FF"/>
<path d="M41.056 36.5387L48.8967 58.7718L41.0082 58.6951L31.2795 36.5387H41.056Z" fill="#6680FF"/>
<path d="M31.2795 36.5387L37.4017 59.9338L31.2358 65.0003L24.5005 45.2937V36.5387H31.2795Z" fill="#6680FF"/>
<path d="M33.4085 36.5387L41.0076 58.6951L38.9333 58.675L37.4012 59.9338L29.3772 36.5387H33.4085Z" fill="#B3CCFF"/>
<path d="M24.4992 1.90625L23.1433 23.0483L24.4992 43.3854C35.9534 43.3854 45.2388 34.1 45.2388 22.6459C45.2388 11.1917 35.9534 1.90625 24.4992 1.90625Z" fill="#EAF1FF"/>
<path d="M3.75977 22.6459C3.75977 34.1 13.0452 43.3854 24.4994 43.3854V1.90625C13.0452 1.90625 3.75977 11.1917 3.75977 22.6459Z" fill="#F9F9F9"/>
<path d="M47.1454 22.6462C47.1454 10.159 36.9863 0 24.4992 0L23.1433 1.35585L24.4992 3.8132C34.8837 3.8132 43.3322 12.2616 43.3322 22.6462C43.3322 33.0307 34.8837 41.4791 24.4992 41.4791L23.1433 43.3857L24.4992 45.2923C36.9863 45.2923 47.1454 35.1333 47.1454 22.6462Z" fill="#FDAE02"/>
<path d="M24.4996 41.4791C14.1151 41.4791 5.66672 33.0307 5.66672 22.6462C5.66672 12.2616 14.1151 3.8132 24.4996 3.8132V0C12.0125 0 1.85352 10.159 1.85352 22.6462C1.85352 35.1333 12.0125 45.2923 24.4996 45.2923V41.4791Z" fill="#FDCB02"/>
<path d="M35.8973 15.0947L29.9609 17.0357L24.5 12.4161L23.1443 21.6925L24.5 31.2679H35.8973V15.0947Z" fill="#FD9002"/>
<path d="M24.5002 12.4161L19.0394 17.0357L13.103 15.0947V31.2679H24.5002V12.4161Z" fill="#FDAE02"/>
</svg>
